<?xml version="1.0" standalone="no"?>
<!DOCTYPE svg PUBLIC "-//W3C//DTD SVG 20010904//EN"
 "http://www.w3.org/TR/2001/REC-SVG-20010904/DTD/svg10.dtd">
<svg version="1.0" xmlns="http://www.w3.org/2000/svg"
 width="781.000000pt" height="781.000000pt" viewBox="0 0 781.000000 781.000000"
 preserveAspectRatio="xMidYMid meet">
<metadata>
Created by potrace 1.14, written by Peter Selinger 2001-2017
</metadata>
<g transform="translate(0.000000,781.000000) scale(0.100000,-0.100000)"
fill="#000000" stroke="none">
<path d="M3709 5995 c-3 -3 -44 -8 -90 -11 -127 -8 -184 -12 -184 -14 0 -2
-36 -7 -100 -14 -33 -3 -71 -8 -85 -12 -14 -3 -34 -6 -45 -5 -10 0 -24 -4 -30
-8 -5 -4 -22 -7 -37 -6 -16 1 -28 -1 -28 -6 0 -4 -14 -6 -31 -5 -16 1 -32 -1
-34 -5 -3 -4 -26 -10 -52 -15 -65 -11 -67 -11 -75 -14 -5 -1 -17 -4 -28 -5
-11 -1 -23 -4 -27 -5 -5 -2 -12 -4 -18 -5 -5 -1 -17 -5 -25 -8 -14 -6 -122
-38 -145 -43 -5 -1 -35 -11 -67 -22 -31 -11 -59 -18 -62 -15 -3 4 -6 1 -6 -5
0 -6 -7 -9 -15 -6 -8 4 -15 2 -15 -2 0 -5 -28 -18 -61 -29 -34 -10 -67 -24
-73 -30 -6 -5 -18 -11 -26 -13 -8 -2 -40 -15 -70 -30 -30 -14 -58 -25 -62 -24
-5 1 -8 -3 -8 -8 0 -6 -5 -10 -11 -10 -16 0 -83 -32 -91 -44 -4 -6 -8 -7 -8
-3 0 5 -13 -1 -29 -12 -16 -12 -34 -21 -40 -21 -6 0 -11 -4 -11 -8 0 -5 -18
-17 -40 -27 -22 -10 -40 -22 -40 -27 0 -5 -4 -7 -9 -3 -6 3 -14 -3 -20 -12 -5
-10 -11 -16 -13 -13 -2 3 -21 -8 -43 -24 -97 -72 -150 -112 -166 -126 -9 -8
-40 -35 -69 -60 -56 -47 -172 -160 -165 -160 2 0 -12 -16 -31 -36 -19 -20 -34
-41 -34 -46 0 -5 -4 -6 -10 -3 -5 3 -10 -1 -10 -10 0 -8 -7 -18 -15 -21 -8 -4
-15 -12 -15 -20 0 -8 -3 -14 -8 -14 -4 0 -18 -18 -32 -40 -14 -22 -29 -40 -35
-41 -5 0 -20 -2 -33 -5 -17 -3 -21 -1 -16 8 6 10 5 10 -8 1 -8 -7 -18 -10 -22
-6 -18 18 -436 17 -585 -1 -62 -8 -121 -16 -156 -23 -16 -3 -37 -6 -45 -7 -9
-1 -21 -5 -28 -10 -6 -4 -16 -4 -22 -1 -14 9 -50 -13 -50 -30 0 -8 5 -15 11
-15 5 0 7 -4 4 -10 -3 -5 -1 -10 4 -10 13 0 171 -158 171 -171 0 -5 3 -9 8 -9
6 0 81 -65 133 -115 9 -8 19 -15 23 -15 4 0 15 -8 26 -17 10 -10 48 -34 84
-53 36 -19 66 -37 66 -41 0 -3 7 -6 15 -6 25 0 94 -37 98 -53 1 -8 -4 -29 -13
-45 -10 -17 -16 -38 -14 -48 1 -9 -2 -15 -7 -11 -5 3 -10 0 -10 -5 -2 -14 -6
-29 -9 -36 -1 -3 -3 -8 -5 -12 -14 -52 -19 -63 -27 -63 -5 0 -7 -4 -4 -8 7
-12 -15 -92 -26 -92 -5 0 -8 -6 -5 -12 2 -7 -2 -25 -10 -40 -7 -16 -11 -28 -7
-28 4 0 2 -6 -5 -13 -6 -8 -9 -23 -6 -35 2 -12 0 -22 -4 -22 -4 0 -16 -35 -26
-77 -22 -92 -20 -84 -28 -103 -5 -14 -7 -28 -8 -72 0 -10 -4 -18 -8 -18 -5 0
-7 -13 -6 -30 1 -16 -1 -30 -6 -30 -4 0 -7 -18 -6 -40 2 -22 -2 -41 -6 -43 -5
-1 -9 -16 -9 -32 0 -17 -3 -34 -7 -40 -4 -5 -9 -28 -10 -50 -5 -71 -7 -80 -13
-90 -3 -5 -4 -27 -3 -47 2 -21 -2 -38 -7 -38 -5 0 -6 -4 -3 -10 3 -5 0 -10 -7
-10 -8 0 -9 -3 -3 -8 8 -5 12 -87 5 -87 -1 0 -3 -13 -3 -30 -1 -16 -6 -36 -11
-44 -7 -10 -6 -12 4 -6 9 6 10 2 5 -16 -4 -13 -9 -53 -11 -89 -1 -36 -3 -66
-4 -67 -6 -8 -5 -30 1 -44 5 -9 5 -20 1 -24 -11 -11 -10 -89 2 -104 8 -11 8
-13 -1 -7 -8 4 -13 2 -13 -8 0 -8 5 -18 12 -22 7 -5 5 -11 -7 -21 -11 -7 -15
-13 -9 -13 5 0 8 -27 7 -60 -1 -39 3 -60 10 -60 7 0 5 -5 -3 -10 -12 -8 -13
-13 -3 -29 6 -10 9 -22 6 -25 -11 -11 -12 -57 -1 -50 6 4 6 -1 -1 -14 -6 -12
-8 -23 -4 -25 5 -3 8 -46 8 -95 0 -50 3 -88 6 -86 3 1 6 -16 7 -39 1 -23 3
-61 4 -84 0 -23 4 -40 8 -38 3 2 5 -14 4 -36 -1 -21 2 -39 8 -39 5 0 7 -4 4
-9 -3 -4 3 -16 14 -26 11 -10 20 -15 20 -11 0 4 8 2 19 -3 10 -6 22 -7 26 -3
11 12 129 10 144 -2 11 -8 13 -8 8 1 -8 13 90 13 112 -1 9 -6 12 -5 8 1 -4 6
11 10 39 10 24 0 47 -4 50 -9 3 -4 11 -5 17 -1 19 13 87 12 87 -1 0 -8 2 -8 8
0 8 13 71 13 91 0 9 -6 12 -5 8 1 -4 6 21 10 63 10 43 0 70 -5 70 -11 0 -8 2
-8 8 0 4 6 30 11 57 11 28 0 53 -5 57 -11 6 -8 8 -8 8 0 0 13 89 13 109 0 9
-6 12 -5 8 1 -4 6 21 10 63 10 43 0 70 -5 70 -11 0 -8 2 -8 8 0 4 6 27 11 52
11 81 1 103 3 97 10 -4 3 -2 13 5 20 9 11 9 16 -1 23 -9 5 -10 9 -2 14 6 4 8
13 4 19 -4 6 -7 23 -7 38 -1 15 -4 30 -8 34 -4 4 -4 13 -1 21 3 8 0 14 -6 14
-6 0 -8 7 -5 15 4 8 1 15 -6 15 -6 0 -10 6 -7 13 2 6 -5 20 -15 29 -11 9 -18
18 -16 21 5 7 -56 73 -87 93 -16 10 -32 21 -35 25 -8 10 -118 71 -132 73 -7 1
-27 7 -45 15 l-32 13 26 34 c17 23 21 34 12 34 -8 0 1 8 19 17 20 10 31 21 28
29 -3 8 1 14 9 14 8 0 14 4 12 9 -1 5 26 39 60 77 108 121 122 138 116 147 -3
5 4 11 16 14 12 3 21 12 21 19 0 8 15 23 33 34 17 11 28 20 23 20 -5 0 -1 9 9
20 10 11 24 20 32 20 8 0 12 4 9 9 -9 15 66 66 79 53 4 -4 10 -7 13 -8 17 -1
82 -39 82 -46 0 -5 4 -6 10 -3 5 3 15 1 22 -5 7 -6 40 -28 73 -49 84 -53 154
-115 240 -212 41 -47 90 -113 87 -117 -2 -2 7 -12 19 -23 12 -10 19 -19 16
-19 -4 0 9 -24 28 -54 19 -29 31 -56 28 -60 -4 -3 -1 -6 5 -6 7 0 12 -7 12
-15 0 -8 5 -15 11 -15 5 0 7 -4 4 -10 -3 -5 -1 -10 5 -10 7 0 10 -7 6 -15 -3
-8 0 -15 6 -15 6 0 8 -3 5 -7 -4 -3 -2 -12 3 -18 16 -19 63 -156 65 -188 1
-16 6 -32 11 -35 5 -4 10 -16 12 -27 7 -53 10 -64 23 -82 8 -11 24 -19 37 -18
12 1 22 -3 22 -9 0 -8 2 -8 8 0 8 11 130 13 148 2 6 -4 14 -4 18 0 12 11 100
10 115 -2 11 -8 13 -8 8 0 -4 7 16 11 63 11 42 -1 67 -5 63 -10 -4 -6 -1 -7 8
-1 20 13 120 14 112 1 -4 -6 -1 -7 8 -1 20 13 163 13 171 0 6 -8 8 -8 8 0 0 7
35 11 106 10 78 -1 111 2 120 12 16 16 18 32 4 32 -5 0 -7 7 -4 15 4 8 1 15
-5 15 -6 0 -8 7 -5 15 4 8 1 15 -6 15 -6 0 -9 4 -5 9 7 12 -33 91 -46 91 -5 0
-9 5 -9 11 0 36 -186 171 -222 161 -5 -1 -8 2 -8 6 0 9 -78 37 -92 34 -5 -1
-8 3 -8 9 0 6 -7 9 -15 6 -8 -4 -17 -2 -20 3 -3 5 -20 8 -37 6 -39 -5 -95 42
-75 64 9 10 9 14 -1 17 -10 4 -9 9 4 24 16 18 16 19 -1 19 -17 0 -17 1 0 20
17 19 17 20 0 20 -17 0 -17 1 0 20 17 19 17 20 0 20 -17 0 -17 1 0 20 17 19
17 20 0 20 -17 0 -17 1 0 20 17 19 17 20 0 20 -17 0 -17 1 0 20 17 19 17 20 0
20 -15 0 -16 2 -4 17 11 13 11 17 1 21 -10 3 -10 7 0 20 11 12 11 16 0 20 -10
3 -10 7 0 20 9 10 9 16 2 19 -6 2 -9 19 -8 38 2 20 -1 35 -8 35 -7 0 -7 5 1
14 7 8 8 17 3 20 -4 2 -7 19 -6 35 1 22 -2 31 -13 31 -13 0 -13 2 -2 17 9 10
10 18 3 20 -6 2 -9 19 -8 38 2 19 -1 35 -5 35 -5 0 -7 8 -4 19 2 10 -3 25 -11
34 -11 10 -12 18 -6 22 8 5 7 11 -1 21 -6 8 -8 14 -3 14 4 0 3 5 -3 11 -6 6
-9 18 -6 25 3 8 0 14 -7 14 -6 0 -9 4 -5 9 3 5 1 12 -4 16 -6 3 -8 12 -4 20 3
8 0 15 -7 15 -6 0 -8 5 -5 10 3 5 -1 10 -11 10 -13 0 -14 3 -5 14 8 10 9 16 1
21 -6 3 -8 10 -6 14 3 4 -3 17 -13 27 -9 11 -16 25 -13 32 2 6 -1 12 -8 12 -6
0 -9 4 -5 9 3 5 1 12 -5 16 -6 4 -8 10 -6 14 3 4 -4 18 -15 29 -11 12 -17 22
-13 22 3 0 1 6 -5 13 -6 8 -8 17 -4 20 3 4 -1 7 -11 7 -9 0 -15 4 -12 9 3 5
-8 23 -24 40 -17 17 -27 31 -24 31 4 0 1 7 -6 15 -10 12 -7 15 14 21 14 3 23
10 20 15 -3 5 4 9 15 9 11 0 23 5 26 10 3 6 13 10 22 10 8 0 27 8 41 19 15 10
44 24 65 32 20 7 37 17 37 22 0 4 4 6 9 2 5 -3 13 -1 16 5 4 7 11 8 18 1 7 -5
17 -9 22 -9 6 0 15 -9 20 -19 6 -10 16 -22 23 -26 6 -4 12 -15 12 -22 0 -8 5
-15 10 -15 6 0 10 -5 10 -10 0 -6 9 -20 20 -32 11 -12 25 -34 32 -49 7 -15 16
-25 20 -23 4 3 8 -2 8 -10 0 -9 5 -16 11 -16 5 0 7 -4 4 -10 -3 -5 -2 -10 3
-10 5 0 12 -8 16 -17 3 -10 11 -27 18 -38 49 -75 57 -89 52 -97 -3 -4 0 -8 5
-8 6 0 11 -7 11 -15 0 -8 5 -15 12 -15 6 0 8 -3 5 -6 -4 -4 3 -20 14 -35 11
-16 17 -29 13 -29 -3 0 -2 -6 4 -12 21 -26 72 -127 72 -142 0 -9 5 -16 11 -16
6 0 9 -7 5 -15 -3 -9 0 -15 9 -15 8 0 14 -3 14 -7 -1 -5 0 -10 1 -13 1 -3 3
-12 5 -20 2 -8 14 -37 26 -65 13 -27 24 -52 24 -55 1 -3 6 -16 12 -30 6 -14
16 -43 24 -65 8 -22 18 -43 23 -46 5 -4 6 -14 3 -23 -4 -9 -2 -16 4 -16 6 0 8
-4 4 -9 -3 -5 1 -16 9 -24 8 -8 12 -17 9 -21 -3 -3 0 -12 7 -21 7 -8 9 -15 5
-15 -4 0 0 -11 9 -25 9 -14 14 -25 12 -25 -3 0 1 -17 8 -37 7 -21 11 -44 8
-52 -3 -9 0 -11 8 -6 10 6 12 4 7 -8 -3 -9 -2 -19 3 -22 6 -4 10 -17 10 -30 0
-13 4 -26 9 -29 4 -3 7 -17 6 -31 -2 -14 0 -25 5 -25 7 0 24 -72 23 -97 0 -7
2 -13 6 -13 4 0 8 -12 9 -27 1 -15 8 -30 15 -35 9 -6 9 -8 -2 -8 -10 0 -11 -3
-3 -13 6 -7 11 -22 11 -32 1 -38 4 -55 11 -55 4 0 6 -12 4 -27 -1 -15 0 -31 3
-37 4 -5 8 -24 9 -40 6 -58 11 -71 30 -75 10 -2 24 -7 30 -12 6 -5 14 -6 18
-2 11 12 56 11 56 -1 0 -7 3 -8 8 -1 9 14 105 14 114 0 5 -7 8 -7 8 1 0 5 11
10 25 10 14 0 25 -4 25 -9 0 -4 5 -5 12 -1 19 12 88 12 88 0 0 -8 3 -8 8 -1 9
14 65 14 74 0 5 -7 8 -7 8 1 0 12 58 13 77 1 6 -4 14 -3 17 1 6 10 46 10 63
-1 6 -4 14 -3 17 1 6 10 46 10 62 -1 6 -3 14 -3 18 0 12 12 56 11 56 -1 0 -7
3 -7 8 -1 10 14 72 14 72 1 0 -8 3 -8 8 -1 9 14 65 14 74 0 5 -6 8 -6 8 0 0 6
27 11 60 11 42 1 58 -2 53 -10 -5 -8 -3 -8 8 0 15 11 77 13 94 2 16 -10 46 17
39 36 -3 9 -10 16 -16 16 -5 0 -7 4 -4 8 3 5 -3 18 -14 29 -10 12 -16 24 -13
27 4 3 -4 14 -15 25 -12 10 -22 22 -22 27 0 5 -16 26 -36 47 -19 20 -32 37
-27 37 10 0 -35 27 -59 36 -10 3 -15 10 -13 15 3 4 -5 13 -17 20 -13 7 -25 15
-28 19 -8 11 -99 55 -155 75 -27 9 -57 20 -65 23 -8 3 -24 7 -35 9 -39 7 -47
13 -42 33 3 11 0 20 -5 20 -6 0 -3 9 7 20 10 11 19 29 20 39 1 11 7 26 14 35
7 8 10 20 6 25 -3 6 2 22 11 36 11 17 12 25 4 25 -6 0 0 14 15 32 16 19 23 34
16 36 -6 2 0 18 15 38 16 21 21 34 14 34 -9 0 -7 7 5 20 10 11 19 28 20 38 0
10 14 35 29 55 15 20 25 40 22 45 -3 5 3 17 14 27 11 10 20 24 20 32 0 7 5 13
11 13 5 0 7 4 4 10 -5 9 29 62 63 98 7 8 10 17 7 21 -2 5 4 16 15 26 11 10 17
22 14 26 -5 8 4 11 39 12 18 0 47 -14 43 -22 -2 -3 2 -12 10 -19 8 -7 14 -11
14 -9 0 5 64 -52 152 -135 40 -38 76 -68 81 -68 4 0 5 -5 2 -10 -3 -5 0 -10 8
-10 19 0 59 -44 50 -56 -5 -5 -4 -6 1 -2 5 4 28 -12 51 -36 24 -23 55 -53 70
-64 15 -12 26 -22 23 -22 -3 0 41 -47 96 -103 137 -140 270 -285 274 -297 2
-6 8 -8 13 -4 5 3 9 2 8 -3 -4 -21 3 -32 21 -38 11 -3 20 -11 20 -16 0 -6 10
-20 23 -33 40 -41 122 -138 140 -167 11 -16 23 -29 28 -29 5 0 9 -6 9 -13 0
-7 9 -19 20 -27 11 -8 20 -20 20 -26 0 -12 46 -27 85 -28 11 -1 23 -5 27 -11
5 -6 8 -6 8 1 0 13 178 13 199 0 9 -6 12 -5 8 1 -8 13 112 12 132 -1 9 -6 12
-5 8 1 -8 13 92 12 112 -1 9 -6 12 -5 8 1 -8 12 121 12 140 0 6 -4 14 -4 17 1
6 10 107 9 123 -1 6 -4 14 -4 17 1 3 4 60 8 128 7 68 -1 132 2 143 6 11 4 15
8 9 8 -5 1 -9 15 -8 31 1 20 -3 30 -12 30 -8 0 -11 6 -8 15 4 8 1 15 -6 15 -6
0 -9 4 -6 8 3 5 -5 20 -17 33 -12 13 -20 25 -17 26 3 1 -3 11 -12 22 -9 11
-14 22 -11 25 4 3 -1 6 -11 6 -9 0 -14 5 -11 11 4 5 -2 18 -14 28 -11 10 -18
21 -14 25 3 3 -1 6 -10 6 -9 0 -17 7 -17 15 0 8 -4 15 -8 15 -5 0 -20 9 -33
21 -54 48 -228 120 -289 121 -8 0 -22 2 -30 5 -8 3 -39 7 -69 9 -29 1 -60 5
-67 8 -8 3 -14 1 -14 -5 0 -5 -10 -1 -21 10 -12 11 -21 31 -21 45 0 14 -5 26
-10 26 -5 0 -7 4 -3 9 3 5 1 12 -4 16 -6 3 -8 12 -4 20 3 8 0 15 -7 15 -6 0
-9 4 -5 9 3 5 1 12 -4 16 -6 3 -8 12 -4 20 3 8 0 15 -6 15 -6 0 -8 7 -5 15 4
8 2 15 -4 15 -6 0 -8 8 -5 19 2 10 -2 24 -10 32 -7 8 -12 20 -9 27 2 6 -1 12
-6 12 -6 0 -8 8 -5 19 2 10 -2 24 -10 32 -7 8 -12 20 -9 27 2 6 0 12 -5 12 -5
0 -8 14 -7 30 1 20 -3 30 -12 30 -8 0 -11 6 -8 15 4 8 1 15 -6 15 -9 0 -10 3
-1 13 8 10 6 18 -7 33 -10 11 -17 25 -14 32 2 6 -1 12 -7 12 -6 0 -8 7 -5 15
4 8 1 15 -5 15 -6 0 -8 7 -5 15 4 8 1 15 -5 15 -6 0 -8 7 -5 15 4 8 1 15 -6
15 -6 0 -9 4 -5 9 3 5 1 12 -4 16 -6 3 -8 12 -4 20 3 8 -1 15 -8 15 -7 0 -9 3
-6 7 4 3 2 12 -4 20 -6 7 -8 13 -4 13 4 0 2 7 -5 15 -7 8 -9 15 -5 15 4 0 2 7
-5 15 -7 8 -9 15 -5 15 4 0 2 6 -4 13 -6 8 -8 17 -4 20 3 4 -1 7 -10 7 -10 0
-14 5 -11 15 4 8 2 15 -2 15 -5 0 -10 12 -11 27 0 15 -6 29 -12 31 -6 2 -8 8
-5 13 3 6 -3 18 -13 27 -10 9 -17 24 -15 33 1 9 -3 23 -11 30 -7 8 -12 20 -9
27 2 6 -1 12 -8 12 -6 0 -8 5 -5 10 3 5 -2 10 -11 10 -13 0 -15 3 -7 11 8 8 7
18 -3 37 -7 14 -11 29 -8 34 3 4 -2 8 -11 8 -9 0 -13 5 -10 11 4 5 -2 18 -13
27 -10 9 -17 23 -15 30 3 6 -1 12 -7 12 -10 0 -10 4 0 15 9 10 9 15 1 15 -6 0
-11 7 -11 15 0 8 -5 15 -11 15 -5 0 -7 5 -4 11 4 5 -2 18 -13 27 -10 9 -17 23
-15 30 3 6 0 12 -6 12 -6 0 -10 3 -10 8 1 4 0 10 -1 15 -1 4 -4 10 -5 15 -11
36 -29 72 -36 72 -4 0 -6 7 -3 15 4 8 1 15 -5 15 -6 0 -10 3 -10 8 3 14 -23
72 -33 72 -5 0 -7 4 -3 9 3 5 1 12 -5 16 -6 4 -8 11 -5 16 4 5 -1 9 -9 9 -10
0 -13 6 -10 15 4 8 1 15 -6 15 -6 0 -8 4 -5 10 3 6 -1 10 -9 10 -10 0 -13 6
-10 15 4 8 2 15 -3 15 -12 0 -9 40 6 68 9 17 9 22 0 22 -7 0 -2 11 10 24 14
15 19 26 12 30 -7 5 -5 15 5 32 12 18 13 24 4 24 -9 0 -7 7 5 20 17 19 17 20
0 20 -16 0 -17 2 -3 18 18 19 22 152 5 152 -5 0 -4 7 3 15 10 12 9 15 -5 15
-15 0 -16 2 -4 17 11 13 11 17 2 20 -9 3 -10 10 -3 24 7 12 7 19 1 19 -6 0 -8
7 -5 15 4 8 1 15 -6 15 -6 0 -8 5 -5 10 3 6 -1 10 -11 10 -13 0 -14 3 -5 14 8
10 9 16 1 21 -6 3 -8 10 -5 15 3 5 1 11 -5 15 -6 4 -8 11 -5 16 4 5 -1 9 -9 9
-10 0 -13 6 -10 15 4 8 1 15 -6 15 -6 0 -9 4 -6 9 3 5 -7 22 -23 39 -16 17
-27 33 -23 37 4 3 1 9 -6 14 -9 5 -7 13 8 29 19 20 19 22 3 23 -16 0 -16 1 2
9 11 5 16 9 12 9 -4 1 -3 10 3 21 8 15 8 20 -1 20 -8 0 -7 5 2 17 11 13 11 17
1 21 -10 3 -10 7 0 20 11 12 11 16 0 20 -10 3 -10 7 -1 19 8 9 9 17 3 21 -5 4
-9 19 -9 35 1 17 -4 27 -14 27 -8 0 -11 3 -8 7 9 9 -33 53 -50 53 -7 0 -13 4
-13 10 0 12 -55 41 -64 33 -3 -4 -6 -2 -6 4 0 12 -136 8 -173 -6 -16 -6 -33
-9 -38 -5 -5 3 -9 0 -9 -5 0 -6 -6 -11 -13 -11 -21 0 -131 -95 -158 -136 -25
-38 -28 -74 -7 -74 6 0 8 -3 5 -6 -4 -4 4 -21 16 -38 12 -17 21 -31 19 -31 -1
0 3 -15 10 -32 7 -18 16 -33 20 -33 4 0 8 -9 8 -20 0 -11 4 -20 9 -20 7 0 21
-33 20 -48 0 -1 7 -10 16 -18 8 -9 15 -22 15 -30 0 -8 5 -14 10 -14 6 0 10 -7
10 -15 0 -9 7 -27 16 -40 9 -14 12 -25 8 -25 -5 0 -4 -4 1 -8 14 -10 48 -72
39 -72 -4 0 3 -9 16 -20 13 -11 20 -20 15 -20 -4 0 -2 -6 4 -13 6 -8 8 -17 4
-20 -3 -4 -2 -7 3 -7 6 0 16 -16 24 -35 8 -19 18 -35 24 -35 5 0 6 -3 3 -7 -4
-3 -2 -12 4 -20 6 -7 8 -13 3 -13 -5 0 -4 -4 1 -8 6 -4 31 -47 55 -97 24 -49
49 -93 55 -97 5 -4 6 -8 1 -8 -5 0 -3 -7 4 -15 7 -8 9 -15 6 -15 -4 0 -1 -7 8
-15 11 -12 12 -23 5 -47 -5 -18 -9 -33 -9 -34 0 -1 -33 -44 -80 -104 -40 -52
-66 -77 -110 -106 -66 -45 -157 -87 -199 -92 -44 -5 -195 -5 -236 1 -28 4 -65
-19 -65 -40 0 -5 -11 -21 -25 -36 -14 -15 -23 -27 -20 -27 11 0 -68 -71 -109
-98 -66 -44 -164 -82 -198 -76 -10 1 -18 -3 -18 -9 0 -8 -3 -7 -9 2 -6 9 -11
10 -15 2 -4 -6 -12 -9 -17 -5 -6 3 -41 8 -77 9 -73 4 -211 34 -254 55 -25 12
-26 14 -12 35 8 13 14 27 12 31 -1 5 6 24 15 42 10 17 14 32 11 32 -4 0 1 9
10 19 12 13 14 21 6 26 -8 5 -5 14 10 30 12 13 20 30 18 37 -3 7 4 24 14 38
13 16 15 26 8 28 -7 3 -3 13 11 28 21 23 21 24 3 25 -18 0 -18 1 1 9 11 5 17
9 12 9 -4 1 0 12 8 25 13 19 13 25 3 29 -8 3 -6 6 5 6 10 1 16 5 12 10 -3 5
-1 13 5 16 8 5 8 11 1 19 -6 7 -8 16 -4 19 3 4 -1 7 -11 7 -9 0 -15 4 -12 8 3
5 -4 19 -15 30 -11 12 -17 22 -13 22 3 0 1 6 -5 13 -6 8 -8 17 -4 20 3 4 -1 7
-10 7 -10 0 -14 5 -11 15 4 8 1 15 -6 15 -6 0 -8 5 -5 10 3 6 -1 10 -11 10
-13 0 -14 3 -5 14 8 9 8 16 2 20 -6 4 -8 13 -4 21 3 8 1 15 -4 15 -5 0 -8 14
-7 30 1 21 -2 30 -14 30 -13 0 -12 3 3 20 17 19 17 20 0 20 -15 0 -16 2 -4 17
11 13 12 17 1 21 -10 3 -9 8 4 23 16 18 16 19 -1 19 -15 0 -16 2 -4 17 8 9 14
23 15 32 0 9 4 24 9 34 4 10 5 21 1 24 -3 3 -1 11 4 18 5 6 11 20 13 31 2 10
7 27 12 37 4 10 5 21 2 24 -4 3 5 19 19 36 20 23 22 32 12 38 -10 7 -8 9 5 9
10 0 16 4 13 8 -3 5 7 22 22 38 15 16 27 36 26 44 0 8 4 21 9 28 7 8 5 12 -7
12 -9 0 -15 3 -14 8 4 11 -35 52 -49 52 -7 0 -10 7 -7 15 4 8 1 15 -5 15 -6 0
-8 7 -5 15 4 8 1 15 -5 15 -6 0 -8 7 -5 15 4 8 1 15 -5 15 -6 0 -8 7 -5 15 4
8 1 15 -6 15 -10 0 -10 3 -1 14 9 10 9 16 1 21 -8 5 -8 10 0 20 8 9 8 15 0 20
-7 4 -7 12 0 25 7 13 6 20 -3 23 -6 3 -3 6 9 6 11 1 25 6 31 12 7 7 17 8 25 3
7 -5 24 -9 38 -10 42 -2 149 -33 176 -50 33 -22 77 -20 113 5 15 11 31 18 35
14 3 -3 6 1 6 10 0 9 12 18 30 22 17 4 28 11 24 16 -3 5 1 9 9 9 7 0 43 30 80
68 101 102 118 125 104 134 -8 5 -6 8 7 8 11 0 16 3 13 7 -4 3 -2 11 3 18 5 6
12 22 14 36 3 13 5 24 6 24 8 0 5 97 -2 101 -5 3 -5 11 1 18 8 9 5 18 -7 32
-10 11 -17 25 -14 32 2 7 -3 21 -11 30 -9 9 -15 21 -14 25 1 5 -9 15 -23 22
-14 7 -24 15 -22 17 7 7 -11 38 -23 38 -8 0 -20 6 -27 13 -15 14 -134 88 -143
88 -2 0 -24 8 -47 18 -37 15 -67 24 -163 48 -11 2 -32 6 -46 7 -14 1 -30 5
-35 8 -8 5 -69 16 -134 23 -14 2 -25 4 -25 5 0 1 -25 3 -55 6 -30 2 -80 7
-110 10 -77 7 -655 16 -661 9z m506 -139 c50 -3 131 -9 180 -12 50 -3 96 -7
103 -7 6 0 12 -3 12 -6 0 -3 15 -6 33 -7 58 -2 102 -7 112 -14 6 -3 23 -7 39
-8 16 -1 50 -8 77 -16 27 -8 49 -13 49 -10 0 3 6 2 13 -3 6 -4 19 -8 27 -10 8
-1 43 -16 78 -33 34 -16 64 -30 67 -30 3 0 13 -8 24 -17 10 -10 27 -25 38 -33
24 -19 67 -80 56 -80 -4 0 -2 -4 6 -9 16 -10 17 -104 1 -109 -5 -2 -7 -9 -4
-16 3 -7 -2 -19 -11 -26 -8 -7 -15 -19 -15 -27 0 -8 -4 -11 -10 -8 -5 3 -10 2
-10 -4 0 -17 -82 -92 -144 -133 -46 -30 -62 -35 -77 -27 -11 5 -19 7 -19 4 0
-3 -10 0 -22 7 -13 6 -32 13 -43 15 -11 2 -27 6 -35 10 -34 14 -230 24 -230
12 0 -4 -8 -6 -18 -4 -40 7 -64 -36 -68 -120 -1 -33 -3 -61 -4 -62 -5 -6 -6
-29 -1 -37 2 -6 5 -26 6 -45 1 -20 7 -46 14 -58 6 -13 9 -23 6 -23 -6 0 26
-83 35 -90 12 -9 19 -50 8 -50 -5 0 -6 -4 -3 -10 3 -5 0 -20 -7 -32 -7 -13
-11 -26 -10 -30 1 -5 -3 -8 -8 -8 -5 0 -9 -3 -8 -7 1 -5 -3 -18 -10 -29 -6
-12 -8 -24 -5 -28 3 -3 0 -6 -7 -6 -7 0 -11 -3 -8 -6 3 -3 -2 -27 -12 -54 -10
-27 -17 -67 -16 -89 0 -21 -2 -37 -6 -34 -9 5 -9 1 -10 -83 0 -33 3 -87 7
-120 5 -32 8 -64 6 -71 -1 -6 3 -14 9 -18 5 -3 10 -16 10 -28 0 -13 7 -33 16
-45 8 -12 12 -22 8 -22 -4 0 1 -7 12 -16 10 -8 14 -13 8 -10 -7 3 -14 0 -17
-7 -3 -9 -28 -13 -86 -12 -45 0 -81 -3 -81 -6 0 -3 -18 -6 -41 -7 -22 -1 -54
-4 -72 -8 -18 -3 -50 -7 -72 -9 -65 -7 -100 -13 -204 -35 -54 -12 -105 -22
-113 -24 -7 -1 -17 -4 -23 -7 -13 -8 -68 -23 -77 -21 -4 1 -20 -3 -35 -9 -15
-6 -41 -13 -58 -16 -16 -2 -34 -9 -40 -14 -5 -5 -18 -9 -30 -9 -12 0 -25 -4
-30 -9 -6 -4 -25 -13 -43 -19 -32 -11 -35 -10 -87 42 -29 30 -51 57 -48 60 4
3 -1 6 -10 6 -10 0 -17 4 -17 10 0 15 -33 50 -47 50 -7 0 -13 7 -13 15 0 8
-13 23 -29 33 -15 9 -29 20 -29 25 -4 15 -56 67 -69 67 -8 0 -11 5 -8 10 3 6
3 10 -2 10 -4 0 -32 23 -62 50 -30 27 -63 52 -73 56 -10 3 -18 9 -18 13 0 5
-19 21 -42 37 -24 16 -50 37 -59 46 -9 10 -20 18 -25 18 -5 0 -31 16 -58 35
-27 19 -55 35 -62 35 -7 0 -14 4 -16 8 -7 19 -319 182 -361 189 -10 2 -28 10
-40 18 -13 8 -32 16 -42 18 -11 2 -33 10 -50 17 -36 15 -118 39 -160 47 -16 3
-32 8 -35 12 -3 5 -12 8 -20 8 -13 1 -164 33 -234 50 -11 3 -34 6 -51 7 -16 1
-34 4 -40 7 -5 3 -46 7 -90 8 -103 3 -113 12 -77 61 15 21 30 36 34 33 5 -2 8
0 8 5 0 5 18 27 39 50 23 24 34 43 28 46 -7 3 -6 5 3 6 22 1 63 38 55 50 -3 5
0 10 7 10 7 0 25 11 40 25 15 14 32 25 38 25 6 0 9 4 5 9 -3 6 3 15 14 21 11
6 33 22 48 36 15 15 46 38 68 53 22 14 42 28 45 31 4 5 26 20 132 92 27 18 80
48 159 91 24 13 53 28 64 35 39 22 157 72 170 72 7 0 15 4 17 8 3 7 143 60
178 67 8 2 16 4 18 4 1 1 5 1 8 0 4 0 10 3 13 8 5 9 66 29 111 37 8 2 23 6 32
10 9 4 25 9 35 11 10 2 18 4 18 5 0 1 11 3 24 6 13 2 58 13 100 24 42 10 92
22 111 25 19 3 42 8 51 11 9 2 36 7 60 10 24 3 55 7 69 9 47 8 105 15 155 20
28 2 50 4 50 5 0 7 164 22 262 24 46 0 83 3 83 6 0 7 292 4 405 -4z m1653
-803 c30 -18 64 -103 42 -103 -4 0 -7 -8 -7 -17 0 -35 -3 -44 -13 -38 -6 3 -7
-1 -4 -10 4 -8 1 -22 -6 -30 -7 -8 -9 -15 -5 -15 4 0 3 -6 -3 -13 -26 -31 -19
-69 21 -111 35 -36 59 -75 61 -99 1 -4 8 -12 16 -17 8 -5 12 -12 8 -15 -3 -4
0 -22 8 -41 8 -19 12 -39 9 -44 -4 -6 -2 -10 3 -10 8 0 14 -65 14 -150 0 -71
-2 -80 -17 -80 -16 0 -38 34 -28 44 3 3 -1 6 -10 6 -10 0 -14 5 -11 15 4 8 1
15 -6 15 -6 0 -8 5 -5 10 3 6 -1 10 -9 10 -10 0 -13 6 -10 15 4 8 1 15 -5 15
-6 0 -10 3 -10 8 3 13 -23 72 -31 72 -4 0 -11 11 -14 25 -4 14 -11 25 -17 25
-6 0 -7 5 -4 11 4 5 -2 18 -13 27 -10 9 -17 23 -15 30 3 6 0 12 -7 12 -6 0 -9
4 -5 9 3 5 1 12 -5 16 -6 4 -8 11 -5 16 4 5 -1 9 -10 9 -9 0 -13 4 -10 10 3 5
-2 21 -11 35 -9 14 -13 25 -8 25 4 0 -3 12 -17 26 -13 14 -22 27 -19 29 3 3
-2 13 -11 23 -8 10 -14 23 -11 30 2 7 -1 12 -8 12 -6 0 -8 5 -5 10 3 6 -1 10
-9 10 -10 0 -13 6 -10 15 4 8 1 15 -6 15 -6 0 -8 5 -5 10 3 6 -1 10 -9 10 -10
0 -13 6 -10 15 4 8 2 15 -3 15 -14 0 -10 45 6 64 7 9 17 13 22 10 5 -3 9 0 9
5 0 6 7 11 15 11 8 0 15 5 15 12 0 6 3 9 6 6 3 -4 17 0 32 8 33 18 109 16 140
-3z m-4751 -332 c51 -1 52 -2 47 -28 -3 -16 -9 -29 -15 -31 -5 -2 -9 -10 -9
-18 0 -8 -5 -14 -11 -14 -5 0 -7 -4 -4 -10 3 -5 1 -10 -5 -10 -6 0 -8 -4 -5
-10 3 -5 1 -10 -4 -10 -6 0 -11 -6 -11 -14 0 -8 -3 -16 -7 -18 -10 -4 -59
-110 -55 -120 1 -4 -3 -8 -9 -8 -5 0 -8 -4 -5 -9 3 -5 -4 -11 -17 -15 -25 -6
-187 69 -227 107 -14 12 -27 21 -30 21 -5 -2 -50 33 -98 76 -16 14 -40 35 -55
47 -28 24 -27 52 2 54 66 3 144 9 147 11 2 3 253 2 371 -1z m368 -31 c0 -2 36
-9 80 -14 100 -13 131 -19 144 -30 12 -9 13 -8 6 3 -6 10 -4 12 5 6 7 -5 25
-9 39 -11 31 -3 44 -6 146 -33 44 -12 85 -23 90 -24 6 -2 15 -5 20 -8 6 -4 18
-5 28 -4 9 2 15 0 12 -5 -2 -4 13 -10 35 -14 22 -3 40 -11 40 -17 0 -5 5 -7
10 -4 6 3 16 3 23 -2 6 -4 17 -8 22 -9 6 -1 31 -11 58 -23 26 -11 49 -21 52
-21 7 0 109 -53 115 -59 3 -4 11 -7 18 -9 7 -1 31 -14 54 -28 23 -15 46 -27
52 -28 16 -3 100 -57 104 -67 2 -5 8 -9 14 -9 11 0 101 -61 106 -72 2 -5 10
-8 18 -8 8 0 14 -4 14 -8 0 -4 12 -15 28 -24 15 -9 47 -35 72 -57 25 -22 58
-50 73 -63 15 -13 60 -56 100 -96 208 -211 202 -203 152 -226 -18 -9 -38 -16
-45 -16 -6 0 -43 -16 -82 -37 -39 -20 -77 -36 -84 -36 -8 0 -14 -4 -14 -8 0
-4 -26 -20 -57 -35 -32 -16 -60 -31 -63 -34 -3 -4 -18 -13 -35 -22 -30 -15
-62 -33 -140 -79 -22 -13 -49 -31 -59 -41 -10 -9 -22 -15 -26 -13 -5 3 -10 -2
-14 -10 -3 -8 -12 -15 -21 -15 -8 0 -15 -4 -15 -10 0 -5 -6 -10 -14 -10 -8 0
-16 -4 -18 -8 -1 -5 -25 -23 -53 -42 -27 -19 -56 -40 -65 -46 -8 -7 -69 -56
-135 -109 -66 -52 -143 -118 -172 -145 -29 -28 -57 -50 -62 -50 -6 0 -11 -6
-11 -12 0 -7 -16 -24 -34 -38 -19 -14 -32 -28 -29 -32 2 -5 -1 -8 -7 -8 -6 0
-39 -30 -73 -66 -34 -37 -79 -84 -99 -104 -20 -21 -34 -40 -31 -44 4 -3 -1 -6
-10 -6 -10 0 -17 -3 -17 -7 0 -9 -43 -64 -82 -105 -16 -16 -28 -33 -28 -38 0
-6 -9 -15 -20 -22 -11 -7 -20 -18 -20 -25 0 -7 -4 -13 -8 -13 -5 0 -23 -23
-41 -50 -18 -28 -37 -50 -43 -50 -6 0 -8 -3 -5 -7 4 -3 -3 -17 -15 -30 -12
-13 -18 -23 -15 -23 4 0 -2 -9 -13 -20 -11 -11 -20 -27 -20 -36 0 -8 -5 -12
-11 -8 -8 4 -9 -1 -4 -17 8 -26 25 -40 37 -33 4 3 8 1 8 -5 0 -5 15 -13 33
-16 17 -4 37 -12 44 -17 7 -5 17 -7 22 -4 5 4 12 2 16 -3 6 -11 63 -41 76 -41
5 0 18 -8 29 -17 11 -10 23 -17 26 -15 2 1 10 -2 17 -8 46 -39 61 -50 69 -50
4 0 8 -6 8 -14 0 -8 7 -16 15 -20 8 -3 15 -12 15 -20 0 -7 7 -17 16 -20 11 -4
13 -10 5 -23 -9 -17 -44 -18 -523 -19 -349 0 -519 3 -530 10 -11 6 -16 18 -12
28 3 11 0 18 -7 18 -10 0 -10 3 -1 12 9 9 9 15 0 26 -9 10 -9 15 1 22 10 5 10
9 2 15 -7 3 -9 15 -6 25 3 10 -1 24 -9 32 -12 11 -12 15 1 31 15 15 15 17 -2
17 -15 0 -16 2 -4 17 11 13 11 17 1 21 -10 3 -10 7 0 20 11 12 11 16 0 20 -9
3 -10 7 -2 17 8 10 8 15 0 20 -8 5 -8 10 0 20 6 7 7 15 3 18 -5 3 -8 30 -7 61
2 33 -2 56 -8 56 -6 0 -4 7 3 17 11 13 11 17 1 21 -10 3 -10 7 0 20 11 12 11
16 0 20 -10 3 -10 7 0 20 11 12 11 16 0 20 -9 2 -10 8 -3 16 5 6 8 27 7 46 -1
19 2 43 6 53 6 10 5 17 -2 17 -8 0 -8 6 0 20 8 15 8 20 -1 20 -8 0 -7 5 2 17
11 13 11 17 1 21 -10 3 -10 7 0 20 11 12 11 16 0 20 -10 3 -9 8 4 23 16 18 16
19 0 19 -15 0 -15 2 -3 20 7 10 12 37 11 60 -1 22 3 40 8 40 6 0 6 6 -1 14 -9
10 -9 16 -1 21 8 5 8 10 0 20 -8 10 -8 15 0 20 7 4 10 15 7 25 -2 9 0 25 5 34
6 11 5 16 -3 16 -8 0 -7 5 2 17 11 13 11 17 1 21 -10 3 -10 7 0 20 10 12 10
16 0 19 -9 4 -6 13 9 34 12 17 16 29 8 29 -8 0 -7 5 2 17 11 12 11 17 2 20 -9
3 -8 11 3 29 12 17 13 24 4 24 -10 0 -9 4 1 16 10 13 10 17 -2 25 -8 5 -9 9
-3 9 6 0 16 11 22 25 8 18 8 25 1 25 -8 0 -7 5 1 15 7 8 10 21 7 29 -3 7 0 19
6 26 9 10 9 14 -1 17 -9 3 -6 12 9 31 13 17 16 28 9 30 -7 3 -5 11 7 24 13 15
14 22 6 25 -9 3 -8 11 4 29 8 14 13 27 9 31 -3 3 -1 12 5 19 6 8 9 20 6 28 -3
8 0 20 8 26 7 6 12 19 10 28 -1 9 2 22 7 29 5 6 8 17 7 25 -2 7 2 23 9 35 7
12 11 26 10 30 -1 4 3 18 10 31 9 15 9 22 2 22 -6 0 -2 12 10 27 14 18 17 29
10 31 -7 3 -3 13 10 27 12 13 20 30 17 37 -2 7 3 22 12 32 13 15 13 20 3 24
-10 3 -8 10 9 28 12 13 23 32 24 41 0 10 9 31 19 46 10 15 16 30 13 34 -3 3 5
20 19 38 14 18 20 35 14 37 -5 1 0 14 13 28 13 14 23 33 21 42 -1 9 9 26 22
39 18 17 21 25 13 36 -9 10 -7 13 6 13 10 0 16 3 12 6 -3 4 6 22 20 41 14 18
23 36 19 40 -3 4 6 20 21 35 16 16 28 38 28 49 0 32 42 47 120 43 39 -2 70 -4
70 -4z m2956 -825 c23 -5 32 -26 19 -42 -2 -2 -3 -6 -5 -10 -1 -5 -7 -21 -13
-36 -7 -15 -15 -39 -18 -53 -3 -13 -10 -27 -15 -30 -5 -3 -7 -10 -4 -15 4 -5
2 -9 -4 -9 -5 0 -8 -9 -6 -20 2 -11 0 -20 -4 -20 -8 0 -19 -24 -27 -65 -3 -10
-11 -30 -19 -42 -9 -13 -13 -23 -10 -23 3 0 -1 -13 -10 -30 -9 -16 -13 -30 -9
-30 4 0 1 -6 -5 -13 -18 -22 6 -41 104 -82 50 -21 95 -41 100 -44 6 -4 22 -7
38 -6 15 0 27 -2 27 -6 0 -4 11 -6 25 -4 14 1 28 -1 30 -6 3 -4 13 -8 23 -8 9
-1 64 -3 121 -5 57 -2 122 1 145 6 22 5 52 12 66 14 14 3 40 14 58 25 18 10
40 19 48 19 8 0 14 5 14 10 0 6 5 10 11 10 5 0 24 14 42 30 18 17 40 33 50 36
9 3 15 9 12 14 -3 4 4 10 15 13 11 3 24 17 29 31 17 43 56 60 140 63 66 1 143
10 176 19 6 2 21 5 34 8 62 14 193 93 261 158 15 15 31 24 36 20 4 -4 4 1 1
11 -4 11 -1 17 9 17 8 0 13 3 10 8 -2 4 13 27 33 51 l38 44 21 -23 c19 -21 24
-34 21 -56 0 -4 3 -10 8 -13 11 -8 47 -84 45 -93 -1 -5 2 -8 8 -8 5 0 10 -6
10 -14 0 -8 13 -39 30 -70 16 -31 30 -60 31 -64 3 -14 17 -48 53 -126 20 -43
36 -85 36 -92 0 -8 5 -14 10 -14 6 0 9 -3 8 -7 -1 -5 8 -30 20 -57 12 -27 22
-53 22 -57 0 -5 5 -19 12 -32 25 -48 30 -60 33 -78 4 -18 28 -78 46 -112 5
-10 7 -22 4 -27 -4 -6 -1 -10 6 -10 7 0 9 -3 6 -6 -4 -4 3 -20 15 -37 12 -17
16 -27 9 -23 -9 6 -10 4 -2 -10 9 -18 21 -48 26 -66 2 -5 3 -9 5 -10 1 -2 3
-12 5 -23 2 -11 8 -21 13 -23 6 -2 8 -12 5 -22 -3 -12 0 -20 6 -20 7 0 11 -6
9 -12 -1 -7 4 -24 11 -36 7 -13 11 -26 8 -28 -3 -3 8 -35 23 -72 21 -47 25
-69 17 -74 -8 -5 -6 -9 5 -13 9 -4 15 -14 13 -23 -1 -9 1 -22 6 -28 5 -6 11
-21 13 -35 3 -13 5 -25 7 -26 1 -2 2 -7 3 -12 0 -5 4 -13 9 -17 4 -4 7 -19 7
-34 0 -15 3 -30 7 -34 4 -4 8 -17 9 -29 1 -12 9 -38 17 -58 9 -20 13 -40 9
-44 -4 -5 -2 -5 5 -2 6 4 13 2 15 -5 2 -6 29 -13 64 -14 32 -2 90 -4 127 -6
38 -1 71 -6 73 -10 3 -5 9 -6 14 -3 17 10 180 -51 180 -67 0 -6 5 -8 12 -6 16
6 118 -91 112 -106 -4 -10 -104 -12 -427 -12 l-423 1 -36 36 c-20 21 -34 40
-31 43 4 3 -1 6 -11 6 -9 0 -14 4 -11 10 3 5 -3 15 -15 22 -11 7 -20 17 -20
23 0 6 -9 17 -19 25 -11 7 -18 17 -15 22 3 4 -2 8 -10 8 -9 0 -16 4 -16 10 0
15 -33 50 -48 50 -7 0 -11 4 -7 9 3 5 -22 37 -55 70 -33 33 -60 65 -60 70 0 5
-9 13 -20 16 -11 4 -18 10 -16 14 3 4 -40 53 -95 109 -54 56 -99 107 -99 112
0 6 -4 10 -8 10 -14 0 -52 36 -46 43 3 3 -5 11 -17 18 -30 16 -49 35 -49 48 0
6 -4 11 -10 11 -12 0 -60 48 -60 60 0 6 -3 9 -7 8 -5 -1 -48 37 -98 85 -49 48
-96 87 -103 87 -7 0 -11 4 -8 9 3 5 -6 17 -20 27 -14 11 -44 36 -66 57 -22 20
-47 37 -54 37 -8 0 -13 4 -11 8 4 13 -109 111 -142 123 -10 4 -32 -10 -63 -43
-27 -28 -48 -52 -48 -54 0 -3 -18 -28 -39 -57 -51 -68 -131 -205 -131 -223 0
-9 -5 -12 -11 -8 -7 4 -10 1 -7 -7 3 -8 -3 -25 -13 -38 -10 -13 -16 -27 -13
-32 3 -5 0 -9 -5 -9 -6 0 -11 -9 -11 -20 0 -11 -4 -20 -8 -20 -5 0 -9 -6 -9
-12 0 -14 -33 -93 -58 -141 -10 -19 -11 -26 -2 -21 6 4 5 -1 -4 -12 -9 -10
-14 -25 -12 -31 3 -7 0 -13 -5 -13 -5 0 -13 -17 -17 -37 -4 -21 -10 -42 -13
-48 -4 -5 -7 -14 -9 -20 -1 -5 -6 -24 -11 -42 -6 -17 -8 -34 -4 -37 3 -3 0 -6
-6 -6 -7 0 -12 -9 -12 -20 0 -11 -3 -20 -8 -20 -4 0 -8 -12 -8 -27 -2 -32 -10
-69 -18 -82 -8 -13 38 -41 53 -32 15 10 63 7 80 -4 10 -5 12 -4 7 4 -5 8 -1 9
16 2 13 -5 46 -14 73 -20 54 -13 124 -43 166 -72 14 -10 29 -16 33 -14 3 3 4
2 1 -2 -3 -3 10 -16 28 -27 17 -12 34 -28 35 -36 2 -8 0 -12 -4 -8 -4 4 -13 3
-20 -3 -7 -5 -14 -6 -17 -2 -3 4 -187 7 -409 7 -221 -1 -408 1 -415 3 -6 3 -9
11 -6 19 3 8 1 14 -4 14 -5 0 -8 14 -7 30 1 21 -3 30 -13 30 -13 0 -13 2 -2
17 10 12 11 17 2 20 -7 2 -9 11 -6 19 3 8 0 14 -7 14 -10 0 -10 3 -1 14 8 10
9 16 1 21 -6 3 -8 11 -5 16 4 5 -1 9 -11 9 -14 0 -15 2 -3 17 10 12 11 17 2
20 -7 2 -9 11 -6 19 3 8 1 14 -5 14 -6 0 -8 8 -5 19 2 10 -1 24 -9 32 -7 8
-12 29 -11 47 1 17 -3 32 -8 32 -6 0 -8 4 -4 9 3 5 1 12 -4 16 -6 3 -8 12 -4
20 3 8 0 15 -6 15 -6 0 -8 7 -5 15 4 8 2 15 -4 15 -6 0 -8 8 -5 19 2 10 -2 25
-11 33 -8 9 -13 18 -10 21 8 8 -16 77 -26 77 -5 0 -7 7 -4 15 4 8 1 15 -5 15
-6 0 -8 7 -5 15 4 8 1 15 -5 15 -6 0 -8 7 -5 15 4 8 1 15 -5 15 -6 0 -8 7 -5
15 4 8 1 15 -6 15 -6 0 -9 4 -5 9 3 5 1 12 -4 16 -6 3 -8 12 -4 20 3 8 0 15
-7 15 -6 0 -8 5 -5 10 3 6 -1 10 -11 10 -13 0 -14 3 -5 14 8 10 9 16 1 21 -6
3 -8 10 -5 15 3 5 1 11 -5 15 -6 4 -8 11 -5 16 4 5 -1 9 -9 9 -10 0 -13 6 -10
15 4 8 1 15 -4 15 -6 0 -9 9 -7 20 2 11 -2 26 -10 34 -8 7 -11 16 -8 20 3 3
-3 14 -14 23 -11 10 -18 24 -16 31 3 6 0 12 -7 12 -6 0 -9 4 -5 9 3 5 1 12 -5
16 -6 4 -8 10 -5 15 3 5 1 11 -5 15 -6 4 -8 11 -5 16 4 5 1 9 -4 9 -6 0 -11 7
-11 15 0 8 -5 15 -11 15 -5 0 -8 4 -5 8 3 5 -3 18 -13 28 -9 11 -16 25 -13 32
2 6 -1 12 -7 12 -6 0 -11 6 -11 14 0 8 -6 21 -14 28 -7 8 -17 24 -20 36 -4 12
-12 22 -17 22 -6 0 -7 5 -4 10 3 6 -2 10 -11 10 -13 0 -15 3 -7 11 8 8 7 16
-5 30 -17 19 -65 99 -81 134 -5 11 -18 29 -28 40 -10 11 -22 28 -26 38 -3 9
-14 17 -22 17 -9 0 -13 5 -10 11 4 5 -3 19 -16 30 -12 10 -19 19 -14 19 4 0 2
6 -4 14 -19 22 -2 44 42 55 23 5 89 23 146 40 57 17 114 33 125 36 12 2 32 6
46 10 149 33 276 52 405 60 43 3 80 7 82 8 5 6 70 7 94 2z m-1487 -480 c11
-19 23 -35 28 -35 4 0 8 -7 8 -15 0 -8 4 -15 8 -15 5 0 14 -16 22 -35 8 -19
16 -35 20 -35 7 0 56 -113 53 -122 -2 -5 2 -8 7 -8 6 0 10 -11 10 -24 0 -14 5
-28 11 -31 6 -4 8 -13 5 -21 -3 -7 -1 -16 3 -18 9 -6 23 -57 26 -96 1 -14 6
-24 12 -23 6 1 9 -12 7 -32 -1 -19 0 -35 5 -35 4 0 7 -10 8 -22 2 -53 7 -98
13 -98 3 0 5 -19 4 -43 0 -23 4 -50 8 -59 6 -12 5 -18 -4 -18 -8 0 -9 -3 -3
-8 6 -4 11 -31 10 -59 0 -29 2 -53 5 -53 7 0 4 -109 -3 -117 -4 -3 -2 -12 4
-19 7 -8 7 -14 -1 -19 -7 -4 -7 -12 0 -24 5 -10 7 -20 5 -23 -2 -2 -7 -33 -11
-68 -3 -36 -7 -77 -9 -92 -4 -45 13 -58 85 -63 36 -2 79 -7 95 -10 58 -11 164
-45 170 -55 4 -6 11 -8 16 -5 5 3 16 0 24 -7 32 -27 41 -33 70 -50 17 -9 31
-25 33 -36 3 -18 -9 -19 -350 -18 -307 0 -355 2 -365 15 -6 9 -9 19 -7 23 3 5
-2 8 -11 8 -13 0 -14 4 -5 20 8 14 8 20 0 20 -6 0 -9 4 -5 9 3 5 1 12 -5 16
-6 4 -8 11 -5 16 4 5 -1 9 -11 9 -13 0 -14 3 -5 14 8 10 9 16 1 21 -6 3 -8 10
-5 15 3 5 1 11 -5 15 -6 4 -8 11 -5 16 4 5 -1 9 -9 9 -10 0 -13 6 -10 15 4 8
1 15 -5 15 -6 0 -8 7 -4 15 3 9 -3 25 -13 36 -11 12 -18 24 -16 28 1 3 -5 14
-13 24 -9 10 -13 22 -10 27 4 6 1 10 -5 10 -6 0 -8 5 -5 10 3 6 -1 10 -9 10
-10 0 -13 6 -10 15 4 8 1 15 -5 15 -6 0 -10 3 -10 8 3 12 -22 72 -30 72 -4 0
-15 14 -24 30 -10 17 -25 30 -33 30 -8 0 -12 5 -9 11 4 5 -3 18 -14 28 -12 10
-21 23 -21 28 0 19 -170 184 -238 230 -18 13 -41 31 -52 40 -10 10 -41 28 -67
41 -26 13 -59 29 -73 36 -14 6 -25 16 -25 21 0 6 -4 16 -8 23 -6 8 1 15 18 22
15 6 32 16 39 23 7 6 39 35 71 62 32 28 64 56 71 63 7 6 17 12 23 12 6 0 11 5
11 10 0 6 7 10 15 10 8 0 15 3 15 8 0 4 16 18 35 31 19 13 44 32 56 42 12 11
26 19 31 19 5 0 19 9 31 21 12 11 36 28 52 36 17 9 51 31 78 49 26 19 50 34
54 34 3 0 14 6 22 14 25 23 74 46 96 46 13 0 27 -13 39 -35z"/>
<path d="M5253 4284 c-18 -8 -33 -19 -33 -25 0 -5 -4 -8 -9 -4 -5 3 -12 1 -16
-5 -3 -6 -25 -20 -48 -31 -23 -12 -44 -25 -47 -28 -3 -4 -18 -14 -35 -22 -60
-29 -135 -81 -135 -92 0 -21 14 -34 45 -42 27 -7 48 -10 128 -19 15 -2 27 0
27 4 0 3 10 6 23 5 12 -1 33 5 47 14 34 22 81 69 78 78 -1 5 4 19 11 31 7 13
10 26 7 29 -3 4 0 13 7 21 9 12 9 16 0 19 -9 3 -10 9 -1 23 9 14 9 22 -3 36
-12 15 -12 16 0 9 10 -5 12 -4 7 3 -9 14 -12 14 -53 -4z"/>
</g>
</svg>
